PathFileType	4	(X/Y/Z)	SUB01_off_static_1_1707858583308
DataRate	CameraRate	NumFrames	NumMarkers	Units	OrigDataRate	OrigDataStartFrame	OrigNumFrames
150.00	150.00	       4	71	mm  	150.00	19	       150
Frame#	Time	CLAV			STRN			C7			T10			RSHO			LSHO			RUPA			REL			REM			RFRA			RWL			RWM			LUPA			LEL			LEM			LFRA			LWL			LWM			R.ASIS			L.ASIS			R.PSIS			L.PSIS			R.GTR			R.Knee			R.HF			R.TT			R.Ankle			R.Heel			R.MT1			R.MT5			L.GTR			L.Knee			L.HF			L.TT			L.Ankle			L.Heel			L.MT1			L.MT5			R.Knee.Medial			R.Ankle.Medial			R.MT2			L.Knee.Medial			L.Ankle.Medial			L.MT2			V_Mid_ASIS			V_Mid_PSIS			V_Pelvis_Origin			V_R.Hip_JC			V_R.Knee_JC_Static			V_R.TT			V_R.Ankle_JC			V_L.Hip_JC			V_Mid_Hip			V_R.MT2			V_R.Knee.Medial			V_R.Ankle.Medial			V_R.TT			V_L.Knee_JC_Static			V_L.TT			V_L.Ankle_JC			V_L.MT2			V_L.Knee.Medial			V_L.Ankle.Medial			V_R.Knee_JC2			V_R.Knee2			V_R.Knee_JC_Dynamic			V_R.Ankle_JC_Dynamic			V_L.Knee_JC_Dynamic			V_L.Ankle_JC_Dynamic			V_R.TT2			V_L.TT2			
		X1	Y1	Z1	X2	Y2	Z2	X3	Y3	Z3	X4	Y4	Z4	X5	Y5	Z5	X6	Y6	Z6	X7	Y7	Z7	X8	Y8	Z8	X9	Y9	Z9	X10	Y10	Z10	X11	Y11	Z11	X12	Y12	Z12	X13	Y13	Z13	X14	Y14	Z14	X15	Y15	Z15	X16	Y16	Z16	X17	Y17	Z17	X18	Y18	Z18	X19	Y19	Z19	X20	Y20	Z20	X21	Y21	Z21	X22	Y22	Z22	X23	Y23	Z23	X24	Y24	Z24	X25	Y25	Z25	X26	Y26	Z26	X27	Y27	Z27	X28	Y28	Z28	X29	Y29	Z29	X30	Y30	Z30	X31	Y31	Z31	X32	Y32	Z32	X33	Y33	Z33	X34	Y34	Z34	X35	Y35	Z35	X36	Y36	Z36	X37	Y37	Z37	X38	Y38	Z38	X39	Y39	Z39	X40	Y40	Z40	X41	Y41	Z41	X42	Y42	Z42	X43	Y43	Z43	X44	Y44	Z44	X45	Y45	Z45	X46	Y46	Z46	X47	Y47	Z47	X48	Y48	Z48	X49	Y49	Z49	X50	Y50	Z50	X51	Y51	Z51	X52	Y52	Z52	X53	Y53	Z53	X54	Y54	Z54	X55	Y55	Z55	X56	Y56	Z56	X57	Y57	Z57	X58	Y58	Z58	X59	Y59	Z59	X60	Y60	Z60	X61	Y61	Z61	X62	Y62	Z62	X63	Y63	Z63	X64	Y64	Z64	X65	Y65	Z65	X66	Y66	Z66	X67	Y67	Z67	X68	Y68	Z68	X69	Y69	Z69	X70	Y70	Z70	X71	Y71	Z71	
19	0.120000	966.699463	1390.472046	588.020935	972.542358	1230.876831	581.313049	833.123352	1488.514526	587.789063	738.845459	1233.135132	564.825378	836.548828	1480.655029	732.683289	869.833984	1495.069824	443.216858	872.188110	1462.133667	911.890686	904.892700	1472.909912	1005.525208	933.833130	1372.870605	1016.347107	940.563416	1473.856689	1172.428589	1015.770752	1435.969360	1251.371094	951.211853	1465.849487	1271.214966	939.663025	1479.282349	276.442078	993.657715	1490.864502	167.305695	1005.545532	1388.899536	152.811111	1024.806152	1478.438354	23.267614	1124.038574	1434.651489	-43.155476	1059.880005	1462.267578	-70.544983	959.950378	943.488464	679.171204	958.668396	935.588928	471.375427	758.957764	1009.861938	604.637207	764.708923	1008.501526	525.811707	857.135498	883.197083	753.356506	861.552917	512.429871	730.583252	863.129456	441.105499	732.440796	905.974243	398.029816	681.507385	781.556274	93.188629	724.999329	724.821411	49.740116	681.574341	927.038269	43.088989	676.653198	888.870056	30.963415	761.598816	873.096497	882.706238	393.942810	868.420654	497.344391	433.925323	874.540894	438.870911	437.006653	916.389038	393.424347	483.927948	781.279724	76.658295	462.518799	733.304749	53.569557	512.925354	942.537903	40.119968	497.964600	889.566833	33.125092	422.916382	869.323120	501.917633	601.107910	807.882629	94.611832	640.752686	928.895630	38.815632	716.009888	889.132874	499.613495	563.724792	817.562439	80.093575	546.257751	932.454407	38.789581	459.093414	0.000000	0.000000	0.000000	0.000000	0.000000	0.000000	0.000000	0.000000	0.000000	0.000000	0.000000	0.000000	0.000000	0.000000	0.000000	0.000000	0.000000	0.000000	0.000000	0.000000	0.000000	0.000000	0.000000	0.000000	0.000000	0.000000	0.000000	0.000000	0.000000	0.000000	0.000000	0.000000	0.000000	0.000000	0.000000	0.000000	0.000000	0.000000	0.000000	0.000000	0.000000	0.000000	0.000000	0.000000	0.000000	0.000000	0.000000	0.000000	0.000000	0.000000	0.000000	0.000000	0.000000	0.000000	0.000000	0.000000	0.000000	0.000000	0.000000	0.000000	0.000000	0.000000	0.000000	0.000000	0.000000	0.000000	0.000000	0.000000	0.000000	0.000000	0.000000	0.000000	0.000000	0.000000	0.000000	0.000000	0.000000	0.000000	0.000000	0.000000	0.000000	
20	0.126667	966.751526	1390.484619	588.017944	972.598572	1230.887451	581.307922	833.169312	1488.513184	587.787781	738.885132	1233.134033	564.826599	836.599731	1480.650146	732.685547	869.874451	1495.077759	443.220032	872.231628	1462.098267	911.896118	904.929199	1472.862793	1005.535400	933.882141	1372.822754	1016.331116	940.592041	1473.775391	1172.439575	1015.826721	1435.868042	1251.379639	951.247864	1465.753906	1271.224365	939.714966	1479.275146	276.443024	993.705200	1490.847290	167.301437	1005.593994	1388.868774	152.825577	1024.864868	1478.384888	23.259281	1124.082520	1434.560791	-43.144115	1059.940063	1462.202637	-70.546448	959.990051	943.487000	679.183899	958.713135	935.584473	471.385010	758.985291	1009.857483	604.630493	764.748962	1008.497803	525.806335	857.168823	883.192993	753.358154	861.581482	512.427551	730.583069	863.155151	441.103882	732.438965	905.996643	398.027740	681.505615	781.560120	93.191864	724.998230	724.822754	49.745293	681.573059	927.040710	43.087971	676.651550	888.870728	30.963554	761.597900	873.147461	882.703735	393.942169	868.447754	497.342407	433.928467	874.560608	438.871826	437.003021	916.405518	393.421265	483.932404	781.283691	76.660698	462.519989	733.305908	53.574081	512.925720	942.538635	40.119198	497.964935	889.568298	33.124622	422.918182	869.355591	501.912231	601.104126	807.888611	94.613174	640.751038	928.897095	38.815144	716.008423	889.154724	499.610840	563.729797	817.564087	80.094849	546.259644	932.456360	38.788994	459.094086	0.000000	0.000000	0.000000	0.000000	0.000000	0.000000	0.000000	0.000000	0.000000	0.000000	0.000000	0.000000	0.000000	0.000000	0.000000	0.000000	0.000000	0.000000	0.000000	0.000000	0.000000	0.000000	0.000000	0.000000	0.000000	0.000000	0.000000	0.000000	0.000000	0.000000	0.000000	0.000000	0.000000	0.000000	0.000000	0.000000	0.000000	0.000000	0.000000	0.000000	0.000000	0.000000	0.000000	0.000000	0.000000	0.000000	0.000000	0.000000	0.000000	0.000000	0.000000	0.000000	0.000000	0.000000	0.000000	0.000000	0.000000	0.000000	0.000000	0.000000	0.000000	0.000000	0.000000	0.000000	0.000000	0.000000	0.000000	0.000000	0.000000	0.000000	0.000000	0.000000	0.000000	0.000000	0.000000	0.000000	0.000000	0.000000	0.000000	0.000000	0.000000	
21	0.133333	966.806946	1390.500366	588.016235	972.654968	1230.902588	581.304504	833.214966	1488.512451	587.786926	738.925049	1233.134155	564.830261	836.647766	1480.648071	732.688416	869.916138	1495.088257	443.224609	872.270874	1462.062744	911.904541	904.963562	1472.815430	1005.548096	933.934692	1372.775146	1016.315063	940.621582	1473.689087	1172.452881	1015.887146	1435.759033	1251.389526	951.283508	1465.652954	1271.234985	939.765808	1479.267578	276.443146	993.746094	1490.830322	167.293198	1005.648743	1388.837524	152.845535	1024.908936	1478.320557	23.245331	1124.117310	1434.463257	-43.136875	1059.987061	1462.121216	-70.554062	960.028870	943.486450	679.195679	958.755066	935.580933	471.394196	759.013977	1009.854126	604.626038	764.786316	1008.496948	525.802856	857.201965	883.188843	753.361206	861.609741	512.425171	730.582764	863.180481	441.102295	732.437134	906.018921	398.025482	681.503235	781.563843	93.195175	724.997375	724.823975	49.750462	681.572083	927.043335	43.086880	676.650024	888.871521	30.963684	761.597229	873.194580	882.702881	393.942139	868.471863	497.341034	433.931183	874.577148	438.874634	436.996307	916.420105	393.418915	483.936066	781.287415	76.663269	462.521179	733.307068	53.578854	512.926392	942.539368	40.118404	497.965302	889.569702	33.124054	422.919983	869.385742	501.906799	601.100098	807.894165	94.614601	640.749390	928.898560	38.814724	716.007141	889.175415	499.609283	563.733337	817.565735	80.096497	546.261475	932.458374	38.788334	459.094879	0.000000	0.000000	0.000000	0.000000	0.000000	0.000000	0.000000	0.000000	0.000000	0.000000	0.000000	0.000000	0.000000	0.000000	0.000000	0.000000	0.000000	0.000000	0.000000	0.000000	0.000000	0.000000	0.000000	0.000000	0.000000	0.000000	0.000000	0.000000	0.000000	0.000000	0.000000	0.000000	0.000000	0.000000	0.000000	0.000000	0.000000	0.000000	0.000000	0.000000	0.000000	0.000000	0.000000	0.000000	0.000000	0.000000	0.000000	0.000000	0.000000	0.000000	0.000000	0.000000	0.000000	0.000000	0.000000	0.000000	0.000000	0.000000	0.000000	0.000000	0.000000	0.000000	0.000000	0.000000	0.000000	0.000000	0.000000	0.000000	0.000000	0.000000	0.000000	0.000000	0.000000	0.000000	0.000000	0.000000	0.000000	0.000000	0.000000	0.000000	0.000000	
22	0.140000	966.865540	1390.518799	588.015991	972.711182	1230.921753	581.303040	833.260315	1488.512573	587.787048	738.965210	1233.135742	564.835876	836.692871	1480.648560	732.692139	869.958740	1495.100830	443.230011	872.306091	1462.028076	911.916260	904.996094	1472.768433	1005.563538	933.989502	1372.727783	1016.300049	940.652100	1473.599243	1172.469116	1015.951294	1435.644531	1251.401245	951.318726	1465.547852	1271.247437	939.814575	1479.258179	276.441498	993.780396	1490.811401	167.280945	1005.710144	1388.804565	152.870728	1024.938477	1478.244019	23.226414	1124.144287	1434.359985	-43.133923	1060.020996	1462.021973	-70.567429	960.067017	943.486511	679.205994	958.794250	935.578430	471.402588	759.043457	1009.852295	604.623779	764.821411	1008.498962	525.801514	857.235168	883.184814	753.365540	861.637390	512.422852	730.582520	863.205139	441.100830	732.435364	906.040588	398.023071	681.500610	781.567566	93.198555	724.996826	724.825195	49.755558	681.571533	927.046082	43.085735	676.648560	888.872375	30.963762	761.596863	873.237488	882.703613	393.942780	868.492432	497.340393	433.933319	874.590393	438.878723	436.988098	916.432312	393.417328	483.938782	781.290833	76.666054	462.522217	733.308167	53.583836	512.927124	942.540039	40.117611	497.965729	889.571045	33.123436	422.921692	869.413269	501.901611	601.096130	807.899170	94.616188	640.747925	928.900085	38.814373	716.006165	889.194397	499.609039	563.735168	817.567383	80.098595	546.263000	932.460327	38.787666	459.095703	0.000000	0.000000	0.000000	0.000000	0.000000	0.000000	0.000000	0.000000	0.000000	0.000000	0.000000	0.000000	0.000000	0.000000	0.000000	0.000000	0.000000	0.000000	0.000000	0.000000	0.000000	0.000000	0.000000	0.000000	0.000000	0.000000	0.000000	0.000000	0.000000	0.000000	0.000000	0.000000	0.000000	0.000000	0.000000	0.000000	0.000000	0.000000	0.000000	0.000000	0.000000	0.000000	0.000000	0.000000	0.000000	0.000000	0.000000	0.000000	0.000000	0.000000	0.000000	0.000000	0.000000	0.000000	0.000000	0.000000	0.000000	0.000000	0.000000	0.000000	0.000000	0.000000	0.000000	0.000000	0.000000	0.000000	0.000000	0.000000	0.000000	0.000000	0.000000	0.000000	0.000000	0.000000	0.000000	0.000000	0.000000	0.000000	0.000000	0.000000	0.000000	
